<?xml version="1.0" standalone="no"?><!DOCTYPE svg PUBLIC "-//W3C//DTD SVG 1.1//EN" "http://www.w3.org/Graphics/SVG/1.1/DTD/svg11.dtd"><svg t="1489940766882" class="icon" style="" viewBox="0 0 1024 1024" version="1.1" xmlns="http://www.w3.org/2000/svg" p-id="999" xmlns:xlink="http://www.w3.org/1999/xlink" width="64" height="64"><defs><style type="text/css"></style></defs><path d="M291.075 395.46c0-115.67 94.127-209.729 209.744-209.729 115.677 0 209.742 94.122 209.742 209.73 0 4.219-0.188 8.631-0.504 13.923a8.208 8.208 0 0 1-3.715 6.296c-2.207 1.391-4.917 1.701-7.312 0.823l-65.399-24.446c-2.96-1.135-5.042-3.84-5.291-6.994-5.292-65.96-61.3-117.556-127.522-117.556-70.565 0-127.964 57.393-127.964 127.955 0 64.384 48.134 118.943 111.962 126.944 3.271 0.38 5.922 2.712 6.862 5.86l19.095 66.463c0.693 2.457 0.25 5.105-1.26 7.121a8.398 8.398 0 0 1-6.49 3.34h-0.759c-0.436 0-0.941 0.063-1.384 0.063-115.678-0.065-209.805-94.124-209.805-209.792z m205.082-8.57c-2.27 2.083-3.212 5.294-2.332 8.253l67.983 236.632c0.755 2.71 2.898 4.85 5.667 5.608 0.76 0.186 1.453 0.313 2.208 0.313 2.019 0 4.03-0.754 5.546-2.205l48.386-44.73 60.928 65.835c1.634 1.764 3.778 2.649 5.983 2.649 1.952 0 3.971-0.693 5.542-2.206l53.871-49.836c3.342-3.086 3.53-8.25 0.443-11.525l-60.927-65.835 48.388-44.735c2.08-1.95 3.024-4.79 2.455-7.555-0.562-2.773-2.519-5.105-5.163-6.115l-230.598-86.247c-2.9-1.068-6.112-0.441-8.38 1.7zM957.48 137.663v608.46c0 40.318-32.702 73.017-73.022 73.017H622.1v65.834h147.876c40.255 0 72.958 32.694 73.022 73.018H178.676c0-40.324 32.7-73.018 73.023-73.018h147.874v-65.834H137.157c-40.322 0-73.023-32.699-73.023-73.018V137.662c0-40.317 32.701-73.018 73.023-73.018h747.3c40.257 0 72.959 32.701 73.022 73.018z m-74.913 1.957H139.174v539.03h743.264l0.128-539.03z m0 0" fill="#1296db" p-id="1000"></path></svg>