<?xml version="1.0" standalone="no"?><!DOCTYPE svg PUBLIC "-//W3C//DTD SVG 1.1//EN" "http://www.w3.org/Graphics/SVG/1.1/DTD/svg11.dtd"><svg t="1489940808387" class="icon" style="" viewBox="0 0 1138 1024" version="1.1" xmlns="http://www.w3.org/2000/svg" p-id="1690" xmlns:xlink="http://www.w3.org/1999/xlink" width="71.125" height="64"><defs><style type="text/css"></style></defs><path d="M113.777778 284.444444 56.433778 284.444444C25.884444 284.444444 0 309.816889 0 341.162667l0 341.674667C0 713.784889 25.258667 739.555556 56.433778 739.555556L113.777778 739.555556 113.777778 284.444444zM1024 284.444444l57.344 0C1112.576 284.444444 1137.777778 310.215111 1137.777778 341.162667l0 341.674667C1137.777778 714.24 1111.893333 739.555556 1081.344 739.555556L1024 739.555556 1024 284.444444z" p-id="1691" fill="#d4237a"></path><path d="M910.222222 113.777778 227.555556 113.777778C196.152889 113.777778 170.666667 139.264 170.666667 170.666667l0 682.666667c0 31.459556 25.486222 56.888889 56.888889 56.888889l682.666667 0c31.459556 0 56.888889-25.429333 56.888889-56.888889L967.111111 170.666667C967.111111 139.264 941.681778 113.777778 910.222222 113.777778zM369.777778 284.444444C416.938667 284.444444 455.111111 322.616889 455.111111 369.777778S416.938667 455.111111 369.777778 455.111111 284.444444 416.938667 284.444444 369.777778 322.616889 284.444444 369.777778 284.444444zM227.555556 796.444444c0 0 46.592-233.358222 139.491556-233.358222 92.899556 0 81.806222 79.132444 151.608889 79.132444C588.515556 642.218667 617.358222 398.222222 711.224889 398.222222S910.222222 796.444444 910.222222 796.444444L227.555556 796.444444z" p-id="1692" fill="#d4237a"></path></svg>