<?xml version="1.0" standalone="no"?><!DOCTYPE svg PUBLIC "-//W3C//DTD SVG 1.1//EN" "http://www.w3.org/Graphics/SVG/1.1/DTD/svg11.dtd"><svg t="1489940668675" class="icon" style="" viewBox="0 0 1028 1024" version="1.1" xmlns="http://www.w3.org/2000/svg" p-id="2764" xmlns:xlink="http://www.w3.org/1999/xlink" width="64.25" height="64"><defs><style type="text/css"></style></defs><path d="M206.825 122.025c-38.4 17.92-74.88 58.24-88.32 98.56-15.36 43.52-15.36 547.84 0 591.36 14.080 41.6 49.92 81.28 90.24 98.56l34.56 15.36h552.96l32.64-15.36c38.4-17.92 74.88-58.24 88.32-98.56 15.36-43.52 15.36-547.84 0-591.36-13.44-40.32-49.92-80.64-88.32-98.56l-32.64-15.36h-556.8l-32.64 15.36zM663.145 191.145c26.24 10.88 53.12 37.76 53.12 52.48s-17.28 35.84-29.44 35.84c-4.48 0-19.84-5.76-33.92-13.44-31.36-16-45.44-14.080-57.6 7.68-7.68 14.080-8.32 21.76-1.92 42.88 7.040 23.68 10.24 26.24 38.4 33.28 72.32 17.28 120.96 60.8 149.76 133.76 18.56 47.36 20.48 147.84 3.2 195.84-22.4 64-84.48 124.8-158.080 152.96-39.040 15.36-117.76 20.48-160.64 10.24-192.64-44.8-291.2-288.64-188.16-464.64 33.92-58.24 126.080-136.96 160-136.96 7.68 0 19.2 5.76 24.96 12.16 20.48 22.4 10.24 39.040-44.8 78.080-78.080 55.68-112 118.4-112 206.72 0 71.68 26.88 133.12 80.64 182.4 44.16 40.32 79.36 54.4 140.8 55.040 85.76 0 147.2-36.48 183.040-108.8 19.2-39.040 19.84-44.16 17.28-98.56-2.56-49.28-5.12-61.44-21.76-87.68-17.92-28.8-72.96-68.48-82.56-59.52-1.92 2.56 1.92 26.88 9.6 54.4 7.040 27.52 12.8 55.68 12.8 62.72 0 51.84-40.32 105.6-88.96 119.040-82.56 22.4-149.76-40.96-149.76-141.44 0-69.76 34.56-122.24 98.56-151.040l23.040-10.24-2.56-55.040c-3.2-49.92-1.92-56.96 10.88-73.6 31.36-39.040 82.56-53.12 126.080-34.56z" p-id="2765" fill="#d81e06"></path><path d="M514.025 438.825c-20.48 12.8-40.96 52.48-40.96 81.28 0 24.32 16.64 58.24 32 66.56 28.16 15.36 70.4-10.88 70.4-43.52 0-9.6-5.12-39.68-10.88-67.2-12.8-54.4-17.28-57.6-50.56-37.12z" p-id="2766" fill="#d81e06"></path></svg>