<?xml version="1.0" standalone="no"?><!DOCTYPE svg PUBLIC "-//W3C//DTD SVG 1.1//EN" "http://www.w3.org/Graphics/SVG/1.1/DTD/svg11.dtd"><svg t="1489940612049" class="icon" style="" viewBox="0 0 1024 1024" version="1.1" xmlns="http://www.w3.org/2000/svg" p-id="1471" xmlns:xlink="http://www.w3.org/1999/xlink" width="64" height="64"><defs><style type="text/css"></style></defs><path d="M864 992H160c-70.4 0-128-57.6-128-128V160c0-70.4 57.6-128 128-128h704c70.4 0 128 57.6 128 128v704c0 70.4-57.6 128-128 128z" fill="#FFFFFF" p-id="1472"></path><path d="M32 144.8v169.6h960V144.8c0-62.4-50.4-112.8-112.8-112.8H144.8C82.4 32 32 82.4 32 144.8z" fill="#D2D5D6" p-id="1473"></path><path d="M164 168.8m-56.8 0a56.8 56.8 0 1 0 113.6 0 56.8 56.8 0 1 0-113.6 0Z" fill="#EC7BB0" p-id="1474"></path><path d="M476 168.8m-56.8 0a56.8 56.8 0 1 0 113.6 0 56.8 56.8 0 1 0-113.6 0Z" fill="#82CFCD" p-id="1475"></path><path d="M476 232.8c-35.2 0-64.8-28.8-64.8-64.8 0-35.2 28.8-64.8 64.8-64.8 35.2 0 64.8 28.8 64.8 64.8-0.8 36-29.6 64.8-64.8 64.8z m0-112.8c-26.4 0-48.8 21.6-48.8 48.8s21.6 48.8 48.8 48.8 48.8-21.6 48.8-48.8-22.4-48.8-48.8-48.8z" fill="#6A576D" p-id="1476"></path><path d="M320 168.8m-56.8 0a56.8 56.8 0 1 0 113.6 0 56.8 56.8 0 1 0-113.6 0Z" fill="#F1ED7B" p-id="1477"></path><path d="M164 232.8c-35.2 0-64.8-28.8-64.8-64.8 0-35.2 28.8-64.8 64.8-64.8 35.2 0 64.8 28.8 64.8 64.8s-28.8 64.8-64.8 64.8z m0-112.8c-26.4 0-48.8 21.6-48.8 48.8s21.6 48.8 48.8 48.8 48.8-21.6 48.8-48.8-21.6-48.8-48.8-48.8zM476 232.8c-35.2 0-64.8-28.8-64.8-64.8 0-35.2 28.8-64.8 64.8-64.8 35.2 0 64.8 28.8 64.8 64.8-0.8 36-29.6 64.8-64.8 64.8z m0-112.8c-26.4 0-48.8 21.6-48.8 48.8s21.6 48.8 48.8 48.8 48.8-21.6 48.8-48.8-22.4-48.8-48.8-48.8zM320 232.8c-35.2 0-64.8-28.8-64.8-64.8 0-35.2 28.8-64.8 64.8-64.8s64.8 28.8 64.8 64.8-29.6 64.8-64.8 64.8zM320 120c-26.4 0-48.8 21.6-48.8 48.8s21.6 48.8 48.8 48.8 48.8-21.6 48.8-48.8S346.4 120 320 120zM32 306.4h960v16H32zM864 834.4H160c-4.8 0-8-3.2-8-8s3.2-8 8-8h704c4.8 0 8 3.2 8 8s-3.2 8-8 8zM480 450.4H160c-4.8 0-8-3.2-8-8s3.2-8 8-8h320c4.8 0 8 3.2 8 8s-3.2 8-8 8zM480 578.4H160c-4.8 0-8-3.2-8-8s3.2-8 8-8h320c4.8 0 8 3.2 8 8s-3.2 8-8 8zM480 706.4H160c-4.8 0-8-3.2-8-8s3.2-8 8-8h320c4.8 0 8 3.2 8 8s-3.2 8-8 8z" fill="#6A576D" p-id="1478"></path><path d="M864 1000H160c-75.2 0-136-60.8-136-136V160c0-75.2 60.8-136 136-136h704c75.2 0 136 60.8 136 136v704c0 75.2-60.8 136-136 136zM160 40C93.6 40 40 93.6 40 160v704c0 66.4 53.6 120 120 120h704c66.4 0 120-53.6 120-120V160c0-66.4-53.6-120-120-120H160z" fill="#6A576D" p-id="1479"></path><path d="M871.2 224.8H636.8c-31.2 0-56.8-25.6-56.8-56.8 0-31.2 25.6-56.8 56.8-56.8h234.4c31.2 0 56.8 25.6 56.8 56.8 0 32-25.6 56.8-56.8 56.8z" fill="#FFFFFF" p-id="1480"></path><path d="M871.2 232.8H636.8c-35.2 0-64.8-28.8-64.8-64.8 0-35.2 28.8-64.8 64.8-64.8h234.4c35.2 0 64.8 28.8 64.8 64.8s-28.8 64.8-64.8 64.8zM636.8 120c-26.4 0-48.8 21.6-48.8 48.8s21.6 48.8 48.8 48.8h234.4c26.4 0 48.8-21.6 48.8-48.8s-21.6-48.8-48.8-48.8H636.8z" fill="#6A576D" p-id="1481"></path><path d="M608 442.4h256v256H608z" fill="#AF5655" p-id="1482"></path><path d="M838.4 706.4H633.6c-18.4 0-33.6-15.2-33.6-33.6V468c0-18.4 15.2-33.6 33.6-33.6h204.8c18.4 0 33.6 15.2 33.6 33.6v204.8c0 18.4-15.2 33.6-33.6 33.6z m-204.8-256c-9.6 0-17.6 8-17.6 17.6v204.8c0 9.6 8 17.6 17.6 17.6h204.8c9.6 0 17.6-8 17.6-17.6V468c0-9.6-8-17.6-17.6-17.6H633.6z" fill="#6A576D" p-id="1483"></path></svg>